<svg id="visual" viewBox="0 0 0 0" width="2000" height="2000" xmlns="http://www.w3.org/2000/svg" preserveAspectRatio="no" xmlns:xlink="http://www.w3.org/1999/xlink" version="1.1"><path d="M0 141L33.3 151C66.7 161 133.3 181 200 211C266.7 241 333.3 281 400 277.7C466.7 274.3 533.3 227.7 600 224.3C666.7 221 733.3 261 800 267.7C866.7 274.3 933.3 247.7 1000 244.3C1066.7 241 1133.3 261 1200 257.7C1266.7 254.3 1333.3 227.7 1400 221C1466.7 214.3 1533.3 227.7 1600 241C1666.7 254.3 1733.3 267.7 1800 267.7C1866.7 267.7 1933.3 254.3 1966.7 247.7L2000 241L2000 0L1966.7 0C1933.3 0 1866.7 0 1800 0C1733.3 0 1666.7 0 1600 0C1533.3 0 1466.7 0 1400 0C1333.3 0 1266.7 0 1200 0C1133.3 0 1066.7 0 1000 0C933.3 0 866.7 0 800 0C733.3 0 666.7 0 600 0C533.3 0 466.7 0 400 0C333.3 0 266.7 0 200 0C133.3 0 66.7 0 33.3 0L0 0Z" fill="#a2ffb0"></path><path d="M0 541L33.3 531C66.7 521 133.3 501 200 521C266.7 541 333.3 601 400 641C466.7 681 533.3 701 600 681C666.7 661 733.3 601 800 581C866.7 561 933.3 581 1000 601C1066.7 621 1133.3 641 1200 614.3C1266.7 587.7 1333.3 514.3 1400 481C1466.7 447.7 1533.3 454.3 1600 504.3C1666.7 554.3 1733.3 647.7 1800 647.7C1866.7 647.7 1933.3 554.3 1966.7 507.7L2000 461L2000 239L1966.7 245.7C1933.3 252.3 1866.7 265.7 1800 265.7C1733.3 265.7 1666.7 252.3 1600 239C1533.3 225.7 1466.7 212.3 1400 219C1333.3 225.7 1266.7 252.3 1200 255.7C1133.3 259 1066.7 239 1000 242.3C933.3 245.7 866.7 272.3 800 265.7C733.3 259 666.7 219 600 222.3C533.3 225.7 466.7 272.3 400 275.7C333.3 279 266.7 239 200 209C133.3 179 66.7 159 33.3 149L0 139Z" fill="#88fdbf"></path><path d="M0 621L33.3 611C66.7 601 133.3 581 200 594.3C266.7 607.7 333.3 654.3 400 697.7C466.7 741 533.3 781 600 761C666.7 741 733.3 661 800 631C866.7 601 933.3 621 1000 644.3C1066.7 667.7 1133.3 694.3 1200 671C1266.7 647.7 1333.3 574.3 1400 547.7C1466.7 521 1533.3 541 1600 587.7C1666.7 634.3 1733.3 707.7 1800 697.7C1866.7 687.7 1933.3 594.3 1966.7 547.7L2000 501L2000 459L1966.7 505.7C1933.3 552.3 1866.7 645.7 1800 645.7C1733.3 645.7 1666.7 552.3 1600 502.3C1533.3 452.3 1466.7 445.7 1400 479C1333.3 512.3 1266.7 585.7 1200 612.3C1133.3 639 1066.7 619 1000 599C933.3 579 866.7 559 800 579C733.3 599 666.7 659 600 679C533.3 699 466.7 679 400 639C333.3 599 266.7 539 200 519C133.3 499 66.7 519 33.3 529L0 539Z" fill="#6ffacf"></path><path d="M0 741L33.3 737.7C66.7 734.3 133.3 727.7 200 744.3C266.7 761 333.3 801 400 851C466.7 901 533.3 961 600 947.7C666.7 934.3 733.3 847.7 800 801C866.7 754.3 933.3 747.7 1000 771C1066.7 794.3 1133.3 847.7 1200 827.7C1266.7 807.7 1333.3 714.3 1400 677.7C1466.7 641 1533.3 661 1600 711C1666.7 761 1733.3 841 1800 834.3C1866.7 827.7 1933.3 734.3 1966.7 687.7L2000 641L2000 499L1966.7 545.7C1933.3 592.3 1866.7 685.7 1800 695.7C1733.3 705.7 1666.7 632.3 1600 585.7C1533.3 539 1466.7 519 1400 545.7C1333.3 572.3 1266.7 645.7 1200 669C1133.3 692.3 1066.7 665.7 1000 642.3C933.3 619 866.7 599 800 629C733.3 659 666.7 739 600 759C533.3 779 466.7 739 400 695.7C333.3 652.3 266.7 605.7 200 592.3C133.3 579 66.7 599 33.3 609L0 619Z" fill="#56f6dd"></path><path d="M0 1001L33.3 981C66.7 961 133.3 921 200 937.7C266.7 954.3 333.3 1027.7 400 1074.3C466.7 1121 533.3 1141 600 1107.7C666.7 1074.3 733.3 987.7 800 954.3C866.7 921 933.3 941 1000 964.3C1066.7 987.7 1133.3 1014.3 1200 994.3C1266.7 974.3 1333.3 907.7 1400 884.3C1466.7 861 1533.3 881 1600 917.7C1666.7 954.3 1733.3 1007.7 1800 1001C1866.7 994.3 1933.3 927.7 1966.7 894.3L2000 861L2000 639L1966.7 685.7C1933.3 732.3 1866.7 825.7 1800 832.3C1733.3 839 1666.7 759 1600 709C1533.3 659 1466.7 639 1400 675.7C1333.3 712.3 1266.7 805.7 1200 825.7C1133.3 845.7 1066.7 792.3 1000 769C933.3 745.7 866.7 752.3 800 799C733.3 845.7 666.7 932.3 600 945.7C533.3 959 466.7 899 400 849C333.3 799 266.7 759 200 742.3C133.3 725.7 66.7 732.3 33.3 735.7L0 739Z" fill="#3ff2eb"></path><path d="M0 1481L33.3 1474.3C66.7 1467.7 133.3 1454.3 200 1447.7C266.7 1441 333.3 1441 400 1441C466.7 1441 533.3 1441 600 1437.7C666.7 1434.3 733.3 1427.7 800 1404.3C866.7 1381 933.3 1341 1000 1327.7C1066.7 1314.3 1133.3 1327.7 1200 1334.3C1266.7 1341 1333.3 1341 1400 1354.3C1466.7 1367.7 1533.3 1394.3 1600 1404.3C1666.7 1414.3 1733.3 1407.7 1800 1397.7C1866.7 1387.7 1933.3 1374.3 1966.7 1367.7L2000 1361L2000 859L1966.7 892.3C1933.3 925.7 1866.7 992.3 1800 999C1733.3 1005.7 1666.7 952.3 1600 915.7C1533.3 879 1466.7 859 1400 882.3C1333.3 905.7 1266.7 972.3 1200 992.3C1133.3 1012.3 1066.7 985.7 1000 962.3C933.3 939 866.7 919 800 952.3C733.3 985.7 666.7 1072.3 600 1105.7C533.3 1139 466.7 1119 400 1072.3C333.3 1025.7 266.7 952.3 200 935.7C133.3 919 66.7 959 33.3 979L0 999Z" fill="#31edf6"></path><path d="M0 1541L33.3 1544.3C66.7 1547.7 133.3 1554.3 200 1554.3C266.7 1554.3 333.3 1547.7 400 1541C466.7 1534.3 533.3 1527.7 600 1524.3C666.7 1521 733.3 1521 800 1504.3C866.7 1487.7 933.3 1454.3 1000 1437.7C1066.7 1421 1133.3 1421 1200 1424.3C1266.7 1427.7 1333.3 1434.3 1400 1454.3C1466.7 1474.3 1533.3 1507.7 1600 1514.3C1666.7 1521 1733.3 1501 1800 1481C1866.7 1461 1933.3 1441 1966.7 1431L2000 1421L2000 1359L1966.7 1365.7C1933.3 1372.3 1866.7 1385.7 1800 1395.7C1733.3 1405.7 1666.7 1412.3 1600 1402.3C1533.3 1392.3 1466.7 1365.7 1400 1352.3C1333.3 1339 1266.7 1339 1200 1332.3C1133.3 1325.7 1066.7 1312.3 1000 1325.7C933.3 1339 866.7 1379 800 1402.3C733.3 1425.7 666.7 1432.3 600 1435.7C533.3 1439 466.7 1439 400 1439C333.3 1439 266.7 1439 200 1445.7C133.3 1452.3 66.7 1465.7 33.3 1472.3L0 1479Z" fill="#34e7ff"></path><path d="M0 1641L33.3 1637.7C66.7 1634.3 133.3 1627.7 200 1621C266.7 1614.3 333.3 1607.7 400 1601C466.7 1594.3 533.3 1587.7 600 1581C666.7 1574.3 733.3 1567.7 800 1557.7C866.7 1547.7 933.3 1534.3 1000 1524.3C1066.7 1514.3 1133.3 1507.7 1200 1507.7C1266.7 1507.7 1333.3 1514.3 1400 1534.3C1466.7 1554.3 1533.3 1587.7 1600 1594.3C1666.7 1601 1733.3 1581 1800 1561C1866.7 1541 1933.3 1521 1966.7 1511L2000 1501L2000 1419L1966.7 1429C1933.3 1439 1866.7 1459 1800 1479C1733.3 1499 1666.7 1519 1600 1512.3C1533.3 1505.7 1466.7 1472.3 1400 1452.3C1333.3 1432.3 1266.7 1425.7 1200 1422.3C1133.3 1419 1066.7 1419 1000 1435.7C933.3 1452.3 866.7 1485.7 800 1502.3C733.3 1519 666.7 1519 600 1522.3C533.3 1525.7 466.7 1532.3 400 1539C333.3 1545.7 266.7 1552.3 200 1552.3C133.3 1552.3 66.7 1545.7 33.3 1542.3L0 1539Z" fill="#45e0ff"></path><path d="M0 1701L33.3 1704.3C66.7 1707.7 133.3 1714.3 200 1714.3C266.7 1714.3 333.3 1707.7 400 1704.3C466.7 1701 533.3 1701 600 1694.3C666.7 1687.7 733.3 1674.3 800 1664.3C866.7 1654.3 933.3 1647.7 1000 1631C1066.7 1614.3 1133.3 1587.7 1200 1584.3C1266.7 1581 1333.3 1601 1400 1631C1466.7 1661 1533.3 1701 1600 1711C1666.7 1721 1733.3 1701 1800 1677.7C1866.7 1654.3 1933.3 1627.7 1966.7 1614.3L2000 1601L2000 1499L1966.7 1509C1933.3 1519 1866.7 1539 1800 1559C1733.3 1579 1666.7 1599 1600 1592.3C1533.3 1585.7 1466.7 1552.3 1400 1532.3C1333.3 1512.3 1266.7 1505.7 1200 1505.7C1133.3 1505.7 1066.7 1512.3 1000 1522.3C933.3 1532.3 866.7 1545.7 800 1555.7C733.3 1565.7 666.7 1572.3 600 1579C533.3 1585.7 466.7 1592.3 400 1599C333.3 1605.7 266.7 1612.3 200 1619C133.3 1625.7 66.7 1632.3 33.3 1635.7L0 1639Z" fill="#5bd9ff"></path><path d="M0 1821L33.3 1817.7C66.7 1814.3 133.3 1807.7 200 1804.3C266.7 1801 333.3 1801 400 1804.3C466.7 1807.7 533.3 1814.3 600 1814.3C666.7 1814.3 733.3 1807.7 800 1807.7C866.7 1807.7 933.3 1814.3 1000 1801C1066.7 1787.7 1133.3 1754.3 1200 1744.3C1266.7 1734.3 1333.3 1747.7 1400 1767.7C1466.7 1787.7 1533.3 1814.3 1600 1827.7C1666.7 1841 1733.3 1841 1800 1827.7C1866.7 1814.3 1933.3 1787.7 1966.7 1774.3L2000 1761L2000 1599L1966.7 1612.3C1933.3 1625.7 1866.7 1652.3 1800 1675.7C1733.3 1699 1666.7 1719 1600 1709C1533.3 1699 1466.7 1659 1400 1629C1333.3 1599 1266.7 1579 1200 1582.3C1133.3 1585.7 1066.7 1612.3 1000 1629C933.3 1645.7 866.7 1652.3 800 1662.3C733.3 1672.3 666.7 1685.7 600 1692.3C533.3 1699 466.7 1699 400 1702.3C333.3 1705.7 266.7 1712.3 200 1712.3C133.3 1712.3 66.7 1705.7 33.3 1702.3L0 1699Z" fill="#71d2ff"></path><path d="M0 1921L33.3 1911C66.7 1901 133.3 1881 200 1877.7C266.7 1874.3 333.3 1887.7 400 1897.7C466.7 1907.7 533.3 1914.3 600 1917.7C666.7 1921 733.3 1921 800 1921C866.7 1921 933.3 1921 1000 1907.7C1066.7 1894.3 1133.3 1867.7 1200 1854.3C1266.7 1841 1333.3 1841 1400 1854.3C1466.7 1867.7 1533.3 1894.3 1600 1911C1666.7 1927.7 1733.3 1934.3 1800 1924.3C1866.7 1914.3 1933.3 1887.7 1966.7 1874.3L2000 1861L2000 1759L1966.7 1772.3C1933.3 1785.7 1866.7 1812.3 1800 1825.7C1733.3 1839 1666.7 1839 1600 1825.7C1533.3 1812.3 1466.7 1785.7 1400 1765.7C1333.3 1745.7 1266.7 1732.3 1200 1742.3C1133.3 1752.3 1066.7 1785.7 1000 1799C933.3 1812.3 866.7 1805.7 800 1805.7C733.3 1805.7 666.7 1812.3 600 1812.3C533.3 1812.3 466.7 1805.7 400 1802.3C333.3 1799 266.7 1799 200 1802.3C133.3 1805.7 66.7 1812.3 33.3 1815.7L0 1819Z" fill="#86caff"></path><path d="M0 2001L33.3 2001C66.7 2001 133.3 2001 200 2001C266.7 2001 333.3 2001 400 2001C466.7 2001 533.3 2001 600 2001C666.7 2001 733.3 2001 800 2001C866.7 2001 933.3 2001 1000 2001C1066.7 2001 1133.3 2001 1200 2001C1266.7 2001 1333.3 2001 1400 2001C1466.7 2001 1533.3 2001 1600 2001C1666.7 2001 1733.3 2001 1800 2001C1866.7 2001 1933.3 2001 1966.7 2001L2000 2001L2000 1859L1966.7 1872.3C1933.3 1885.7 1866.7 1912.3 1800 1922.3C1733.3 1932.3 1666.7 1925.7 1600 1909C1533.3 1892.3 1466.7 1865.7 1400 1852.3C1333.3 1839 1266.7 1839 1200 1852.3C1133.3 1865.7 1066.7 1892.3 1000 1905.7C933.3 1919 866.7 1919 800 1919C733.3 1919 666.7 1919 600 1915.7C533.3 1912.3 466.7 1905.7 400 1895.7C333.3 1885.7 266.7 1872.3 200 1875.7C133.3 1879 66.7 1899 33.3 1909L0 1919Z" fill="#99c2ff"></path></svg>