<svg id="visual" viewBox="0 0 1000 1000" width="1000" height="1000" preserveAspectRatio="none"  xmlns="http://www.w3.org/2000/svg" xmlns:xlink="http://www.w3.org/1999/xlink" version="1.1"><path d="M0 274L18.8 291.2C37.7 308.3 75.3 342.7 112.8 371.5C150.3 400.3 187.7 423.7 225.2 393.8C262.7 364 300.3 281 337.8 224C375.3 167 412.7 136 450.2 150C487.7 164 525.3 223 562.8 281.8C600.3 340.7 637.7 399.3 675.2 427C712.7 454.7 750.3 451.3 787.8 408.2C825.3 365 862.7 282 881.3 240.5L900 199L900 0L881.3 0C862.7 0 825.3 0 787.8 0C750.3 0 712.7 0 675.2 0C637.7 0 600.3 0 562.8 0C525.3 0 487.7 0 450.2 0C412.7 0 375.3 0 337.8 0C300.3 0 262.7 0 225.2 0C187.7 0 150.3 0 112.8 0C75.3 0 37.7 0 18.8 0L0 0Z" fill="#64b3f4" stroke-linecap="round" stroke-linejoin="miter"></path></svg>